<svg xmlns="http://www.w3.org/2000/svg" xmlns:xlink="http://www.w3.org/1999/xlink" width="500" zoomAndPan="magnify" viewBox="0 0 375 374.999991" height="500" preserveAspectRatio="xMidYMid meet" version="1.0"><path fill="#ffffff" d="M 198.847656 229.03125 C 199.738281 223.488281 198.046875 216.210938 190.636719 212.394531 L 157.191406 195.1875 C 139.285156 185.964844 129.757812 166.40625 133.476562 146.503906 C 137.003906 127.652344 151.003906 114.023438 169.472656 110.820312 L 169.472656 103.007812 C 169.472656 94.808594 176.121094 88.164062 184.316406 88.164062 C 192.511719 88.164062 199.160156 94.808594 199.160156 103.007812 L 199.160156 114.125 C 212.347656 119.433594 223.09375 129.621094 228.964844 143.132812 C 232.230469 150.652344 228.777344 159.390625 221.261719 162.664062 C 213.753906 165.945312 205.007812 162.484375 201.730469 154.960938 C 197.34375 144.863281 186.9375 138.742188 176.105469 139.730469 C 165.515625 140.851562 163.144531 149.375 162.664062 151.964844 C 161.621094 157.539062 163.203125 164.890625 170.777344 168.785156 L 204.222656 185.996094 C 221.945312 195.125 231.347656 213.859375 228.167969 233.722656 C 225.5 250.390625 214.421875 263.390625 199.160156 268.597656 L 199.160156 276.859375 C 199.160156 285.058594 192.511719 291.703125 184.316406 291.703125 C 176.121094 291.703125 169.472656 285.058594 169.472656 276.859375 L 169.472656 269.414062 C 153.222656 265.320312 139.316406 254.039062 132.347656 238.007812 C 129.082031 230.488281 132.53125 221.746094 140.050781 218.480469 C 147.566406 215.199219 156.3125 218.664062 159.578125 226.179688 C 163.964844 236.265625 174.324219 242.347656 185.207031 241.402344 C 185.828125 241.351562 186.417969 241.277344 186.996094 241.1875 C 196.433594 239.675781 198.453125 231.5 198.847656 229.03125 Z M 303.03125 66.855469 C 241.46875 5.292969 144.839844 0.101562 77.082031 50.816406 L 63.171875 36.90625 C 55.308594 29.042969 41.84375 33.691406 40.503906 44.730469 L 32.859375 107.914062 C 31.820312 116.507812 39.109375 123.792969 47.699219 122.753906 L 110.875 115.109375 C 121.914062 113.773438 126.566406 100.304688 118.703125 92.445312 L 105.433594 79.175781 C 161.53125 40.859375 240.453125 49.84375 285.519531 106.605469 C 323.628906 154.609375 323.539062 224.363281 285.308594 272.28125 C 234.777344 335.621094 141.792969 339.457031 86.121094 283.777344 C 53.550781 251.207031 41.480469 205.902344 49.671875 163.773438 C 50.273438 160.691406 48.019531 157.824219 44.882812 157.824219 L 14.714844 157.824219 C 12.273438 157.824219 10.136719 159.59375 9.757812 162.003906 C 0.0976562 222.71875 22.664062 287.59375 77.671875 328.652344 C 139.828125 375.058594 227.511719 373.453125 288.136719 325.070312 C 370.226562 259.5625 375.191406 139.023438 303.03125 66.855469 Z M 303.03125 66.855469 " fill-opacity="1" fill-rule="nonzero"/></svg>