<svg xmlns="http://www.w3.org/2000/svg" xmlns:xlink="http://www.w3.org/1999/xlink" width="500" zoomAndPan="magnify" viewBox="0 0 375 374.999991" height="500" preserveAspectRatio="xMidYMid meet" version="1.0"><defs><clipPath id="id1"><path d="M 99 83.90625 L 185 83.90625 L 185 144 L 99 144 Z M 99 83.90625 " clip-rule="nonzero"/></clipPath><clipPath id="id2"><path d="M 190 83.90625 L 276 83.90625 L 276 144 L 190 144 Z M 190 83.90625 " clip-rule="nonzero"/></clipPath></defs><path fill="#ffffff" d="M 204.714844 273.742188 C 203.910156 278.910156 200.824219 283.464844 196.230469 286.113281 C 187.929688 290.902344 177.273438 288.050781 172.480469 279.753906 C 167.6875 271.460938 170.542969 260.816406 178.84375 256.027344 C 183.433594 253.382812 188.929688 252.988281 193.808594 254.871094 L 299.90625 202.886719 L 302.824219 207.9375 Z M 204.714844 273.742188 " fill-opacity="1" fill-rule="evenodd"/><path fill="#ffffff" d="M 43.859375 271.046875 C 43.859375 244.90625 50.859375 220.394531 63.082031 199.28125 L 25.222656 177.441406 C 9.277344 204.976562 0.148438 236.949219 0.148438 271.046875 Z M 43.859375 271.046875 " fill-opacity="1" fill-rule="evenodd"/><path fill="#ffffff" d="M 66.570312 193.574219 C 78.949219 174.328125 95.804688 158.226562 115.667969 146.746094 L 93.808594 108.917969 C 67.3125 124.238281 44.917969 145.855469 28.679688 171.71875 Z M 66.570312 193.574219 " fill-opacity="1" fill-rule="evenodd"/><g clip-path="url(#id1)"><path fill="#ffffff" d="M 184.15625 83.898438 C 155.898438 84.394531 129.171875 91.136719 105.292969 102.804688 C 103.398438 103.730469 101.519531 104.6875 99.660156 105.675781 L 121.539062 143.53125 C 122.507812 143.03125 123.488281 142.539062 124.472656 142.058594 C 142.558594 133.21875 162.78125 128.066406 184.15625 127.578125 Z M 184.15625 83.898438 " fill-opacity="1" fill-rule="evenodd"/></g><g clip-path="url(#id2)"><path fill="#ffffff" d="M 275.339844 105.675781 C 273.480469 104.6875 271.601562 103.730469 269.707031 102.804688 C 245.832031 91.136719 219.101562 84.394531 190.847656 83.898438 L 190.847656 127.578125 C 212.21875 128.066406 232.441406 133.21875 250.527344 142.058594 C 251.511719 142.539062 252.492188 143.03125 253.464844 143.53125 Z M 275.339844 105.675781 " fill-opacity="1" fill-rule="evenodd"/></g><path fill="#ffffff" d="M 346.320312 171.71875 C 330.082031 145.855469 307.6875 124.238281 281.191406 108.917969 L 259.332031 146.746094 C 279.195312 158.226562 296.050781 174.328125 308.429688 193.574219 Z M 346.320312 171.71875 " fill-opacity="1" fill-rule="evenodd"/><path fill="#ffffff" d="M 374.847656 271.046875 C 374.847656 236.949219 365.722656 204.976562 349.777344 177.441406 L 311.917969 199.28125 C 324.140625 220.394531 331.140625 244.902344 331.140625 271.046875 Z M 374.847656 271.046875 " fill-opacity="1" fill-rule="evenodd"/></svg>